<?xml version="1.0" standalone="no"?><!DOCTYPE svg PUBLIC "-//W3C//DTD SVG 1.1//EN" "http://www.w3.org/Graphics/SVG/1.1/DTD/svg11.dtd"><svg t="1491027170162" class="icon" style="" viewBox="0 0 1024 1024" version="1.1" xmlns="http://www.w3.org/2000/svg" p-id="4014" xmlns:xlink="http://www.w3.org/1999/xlink" width="1000" height="1000"><defs><style type="text/css">html, * { user-select: text !important; }
html, * {  }
</style></defs><path d="M53.187875 497.078149c0-3.059686 0-6.117324 0-9.175987 0.106424-0.663102 0.295735-1.324158 0.308015-1.988284 0.228197-13.398148 1.579985-26.694989 4.000104-39.859823 8.401344-45.716204 27.491121-86.498026 56.853869-122.496915 2.25639-2.769067 4.600785-5.466502 6.857175-8.144494-0.177032-0.309038-0.230244-0.459464-0.330528-0.567935-17.853623-19.104103-27.799136-42.1244-33.180703-67.352991-1.983167-9.292644-2.109034-18.766412-2.559289-28.241204-0.8913-18.744923 0.312108-37.259602 4.364401-55.562457 8.319479-37.57785 26.503631-69.216431 56.709583-93.536326 7.892761-6.355755 16.194844-12.025894 26.009374-15.0733 15.829524-4.913916 30.006408 2.461051 34.137495 17.83418 2.299369 8.55791 1.549286 17.146519-0.258896 25.654286-3.723811 17.508769-10.69355 33.698496-20.129456 48.879244-14.818497 23.840988-32.267914 45.664016-51.001581 66.491367-4.53427 5.039783-9.505491 9.685593-14.18814 14.595416-0.511653 0.536212-0.679475 1.642406-0.611937 2.449795 0.774643 9.107425 2.835581 17.938558 5.986341 26.507724 4.571109 12.435217 10.688433 23.966854 20.125363 33.649378 48.335868-40.741913 104.2002-62.133106 167.657464-64.147996-0.208754-0.931209-0.378623-1.650593-0.530073-2.373047-0.172939-0.822738-0.375553-1.641383-0.488117-2.471284-1.790786-13.290701-2.431376-26.616194-1.445932-40.012296 1.221828-16.609283 4.919033-32.588209 12.063757-47.679929 0.763386-1.614777 0.649799-2.63706-0.367367-4.070712-9.900487-13.960966-14.6957-29.359678-12.938684-46.588061 2.741437-26.847461 27.374464-53.574173 46.230927-60.213383 1.683339 0 3.365654 0 5.046946 0 0.191358 0.11768 0.36839 0.301875 0.576121 0.342808 7.627724 1.533936 12.518105 6.157233 13.934361 13.693884 1.449002 7.706519-1.505283 13.898545-8.109702 18.302855-2.348488 1.565658-4.641717 3.246951-6.792707 5.071506-7.353478 6.236028-13.32447 13.4575-15.851013 23.031553-1.569752 5.943362-0.954745 11.68411 1.333368 17.310248 0.315178-0.073678 0.404206-0.068562 0.457418-0.110517 0.296759-0.236384 0.596588-0.470721 0.873903-0.727571 19.22076-17.902742 42.267663-28.182876 67.611887-33.803897 9.356089-2.074242 18.351973 3.747347 20.380166 12.901845 2.043542 9.225105-3.755534 18.356067-13.072737 20.584827-1.261737 0.300852-2.527566 0.593518-3.784186 0.914836-15.70161 4.01136-30.413684 10.121522-43.107797 20.456914-2.049682 1.669012-3.967358 3.499707-6.133697 5.423523 4.490268 2.318812 8.895601 3.439332 13.464663 4.016477 9.845229 1.24127 19.419282-0.402159 28.662807-3.485381 9.760295-3.255137 19.299555-7.176446 28.903284-10.894118 8.947789-3.462868 18.452257 0.333598 22.193465 8.974395 3.860934 8.918114 0.458441 18.459421-8.193613 22.407336-12.165064 5.548366-24.547069 10.55745-37.538965 13.883195-15.743566 4.030803-31.630395 5.652743-47.575552 1.51347-6.229888-1.616824-12.202926-4.224208-18.523889-6.461155-0.130983 0.335644-0.468674 1.083681-0.721431 1.858324-2.986007 9.131985-4.549619 18.529005-5.015224 28.103058-0.653893 13.419637 0.514723 26.709315 3.036149 39.898709 0.260943 1.36509 0.642636 1.837858 2.059915 2.064009 9.045003 1.443885 18.194384 2.506077 27.077705 4.649903C455.221344 252.231675 513.764692 296.213375 552.739355 365.997742c0.393973 0.707105 0.791016 1.414209 1.451048 2.587941 0.432859-1.322112 0.722454-2.156106 0.979304-3.000334 5.873778-19.170618 13.282514-37.722136 22.677489-55.444776 18.597567-35.082006 42.646286-65.779146 74.323752-89.968058 39.327704-30.030967 83.568301-44.6315 133.350101-40.590464 21.38403 1.734504 41.810245 7.250124 61.005422 16.821107 44.210921 22.046109 73.300446 56.95927 87.727017 104.143918 6.367011 20.822235 8.438183 42.016953 5.27412 63.635319-2.88163 19.676132-9.284457 38.228673-18.038842 56.007595-13.364379 27.143197-31.085996 51.307549-50.869574 74.039273-23.995507 27.574009-50.671053 52.387138-78.508052 75.995835-0.509606 0.432859-0.983397 0.909719-1.471514 1.36509 0.896416-0.078795 1.542122-0.449231 2.163269-0.853437 28.990265-18.810415 60.441581-30.101575 95.253434-30.953989 14.777565-0.361227 29.521361 0.158612 43.878346 4.187369 20.236903 5.680373 36.504402 16.889669 46.420239 35.731806 13.114692 24.924669 12.21009 50.398854 0.314155 75.393107-12.490475 26.240641-33.778314 42.283012-61.570287 49.779753-21.123087 5.697769-42.527582 4.752234-63.922868 1.623987-16.20303-2.366907-32.029484-6.365988-47.64002-11.259438-0.661056-0.206708-1.345648-0.334621-2.226714-0.546446 4.591575 15.084557 6.958482 30.149671 7.67275 45.462424 1.211595 25.936719-2.51017 51.17145-11.186783 75.665307-0.655939 1.848091-1.39886 3.798513-1.428535 5.710049-0.357134 23.425525 6.169513 44.899606 18.638499 64.642253 0.406253 0.64366 0.782829 1.305739 1.121544 1.870604-6.222725-2.290159-12.229532-4.754281-18.396999-6.715959-7.92346-2.520403-16.08535-3.798513-24.409946-2.438539-8.822946 1.439792-16.084327 5.318122-22.446221 12.041244-16.060791 16.972557-35.019585 30.181393-56.134485 40.237423-21.796422 10.380418-44.699038 16.72594-68.771293 18.786878-3.176342 0.272199-6.350638 0.589424-9.525957 0.88823-5.353938 0-10.707876 0-16.058744 0-0.434905-0.106424-0.861624-0.25992-1.300622-0.312108-9.846252-1.190105-19.844977-1.645476-29.518291-3.668553-55.353702-11.57257-99.050923-40.785915-130.203434-88.074941-20.659529-31.362288-31.019481-66.137303-32.081673-103.670128-0.112564-4.003174-0.014326-8.010441-0.014326-12.254092-1.429559 0.469698-2.509147 0.808412-3.579525 1.177825-39.010479 13.412474-79.010495 17.658172-119.931486 12.564154-31.597649-3.932566-61.556984-13.325493-89.683579-28.29237-55.113225-29.327956-95.547123-72.41017-120.588449-129.682571-12.249999-28.0171-19.363-57.359382-21.412682-87.896886C53.769113 506.184551 53.482587 501.630838 53.187875 497.078149zM319.761186 259.735579c-131.918495 0.690732-231.397161 105.195877-233.379305 228.091882-2.192945 135.914506 105.352443 236.367359 228.916667 237.916645 135.931902 1.703805 235.409544-106.732883 237.007949-228.285287C554.102399 360.853581 444.932 259.861446 319.761186 259.735579zM449.253422 795.123242c0.252757 0.961908 0.441045 1.747807 0.668219 2.52245 2.966565 10.145058 7.393387 19.680225 11.667737 29.319769 3.308349 7.459902 8.777921 11.299347 16.1007 13.921058 12.254092 4.38896 24.659633 3.722788 37.124526 1.992377 22.944572-3.186576 44.500517-10.647501 64.668859-21.983687 32.486902-18.257829 57.335846-43.826158 72.52478-78.044494 11.466146-25.830295 19.092847-52.810786 21.170159-81.161485 1.064238-14.503319 0.293689-28.865421-3.805676-42.907229-3.078105-10.539031-7.700379-20.293185-15.535835-28.186969-1.588171-1.598404-3.759627-3.064802-5.9055-3.591805-17.593703-4.310166-35.453467-5.269004-53.468772-3.640923-0.517793 0.047072-1.022283 0.2415-2.156106 0.523933 15.547091 5.4225 22.330588 16.986883 25.031093 31.628348 1.720178 9.323343 1.497097 18.723434 0.452301 28.091802-1.720178 15.405875-5.754051 30.264281-10.872628 44.859697-8.921183 25.431206-21.61939 48.465828-41.541115 67.12377-18.003026 16.857946-38.33612 29.745465-61.950957 37.141922-14.219863 4.454452-28.748764 6.450922-43.636846 4.357238C456.340841 796.606013 452.934255 795.820114 449.253422 795.123242zM490.252185 866.215394c0.509606 0.579191 0.874927 1.050935 1.296529 1.468444 14.716166 14.540158 31.405267 26.232454 50.352805 34.580586 5.152347 2.270716 10.380418 4.89345 15.836687 5.858428 23.998577 4.243651 47.952128 3.210112 71.682599-2.236947 33.714869-7.736195 63.148226-23.404036 87.620593-48.004317 17.160845-17.249873 29.789467-37.517475 38.97671-59.947324 12.219299-29.844725 16.492626-60.885695 13.282514-92.952019-0.401136-4.007267-0.74599-8.156774-2.049682-11.916401-6.600325-19.032472-16.541745-36.225039-29.586852-51.581796-13.043061-15.352663-28.279067-28.073382-45.99045-37.754882-0.845251-0.463558-1.738597-0.840134-2.609431-1.257643-0.00921 0.636496 0.168846 0.87902 0.356111 1.113357 28.907377 36.449143 39.347147 77.680197 31.543414 123.446543-3.906983 22.921036-12.710486 44.096311-24.644283 63.970964-18.446118 30.719652-43.720757 53.78702-76.845179 67.889203-19.225877 8.184403-39.355333 12.597923-60.180638 13.974269-16.46295 1.088798-32.851199 0.484024-49.105395-2.37714C503.599168 869.325221 497.091964 867.696118 490.252185 866.215394zM566.530452 602.381473c-0.405229 0.433882-0.539282 0.525979-0.603751 0.654916-0.301875 0.615007-0.588401 1.237177-0.873903 1.860371-13.868869 30.577413-32.594349 57.820893-56.266491 81.626066-18.818601 18.925025-39.95806 34.783201-63.510476 47.379077-1.191128 0.63752-1.823532 1.329275-1.827625 2.78237-0.022513 7.712659-0.25992 15.423271-0.189312 23.131837 0.042979 4.751211 1.048889 5.601578 5.867638 6.16235 0.152473 0.01842 0.304945 0.021489 0.457418 0.037862 7.073092 0.74292 13.626345-1.257643 19.9821-3.985778 15.587-6.685259 28.593222-17.048281 40.025599-29.321816 28.218692-30.29498 45.775556-66.208934 54.983265-106.359376C566.349327 618.615203 567.194578 610.722442 566.530452 602.381473zM171.980421 94.913697c-0.246617-0.127913-0.49221-0.255827-0.738827-0.384763-12.963243 9.603729-23.553439 21.370727-31.807427 35.240619-8.190543 13.768585-16.980743 38.045501-16.196891 44.750203 0.424672-0.452301 0.815575-0.804319 1.12973-1.213641 7.758708-10.114358 15.747659-20.062941 23.192212-30.402427 7.397481-10.275018 14.415314-20.862143 19.072381-32.753985C168.594301 105.140619 170.209078 99.996458 171.980421 94.913697z" p-id="4015" fill="#d81e06"></path><path d="M156.737252 592.891332c4.713348-0.405229 9.108448-0.719384 13.487176-1.171686 18.500353-1.905396 36.646642-5.708002 54.606689-10.426467 40.680515-10.68741 79.576383-26.094308 117.340475-44.487214 25.700335-12.518105 50.638307-26.409486 74.982762-41.382503 0.566912-0.348947 1.166569-0.642636 2.059915-1.12973 0.49221 5.409197 1.079588 10.540054 1.407046 15.687284 0.861624 13.58746 0.974188 27.174919-0.422625 40.74089-3.007497 29.216415-12.262278 55.836703-32.41834 77.917604-12.780071 13.999852-28.224832 24.241101-45.420469 31.946596-19.920702 8.927323-40.603767 14.58109-62.630433 14.678304-25.328875 0.106424-48.314379-7.291057-69.139683-21.442358-22.289656-15.144932-39.401382-35.045167-52.583612-58.434877C157.598876 594.662675 157.249929 593.904405 156.737252 592.891332zM379.32784 608.751554c-3.149736-0.476861-5.833869-0.907673-8.523117-1.290389-16.232706-2.319835-32.428573-2.575662-48.51904 1.082658-20.542872 4.669346-37.449937 14.942317-49.516764 32.523741-3.463891 5.0449-6.264681 10.4367-8.268314 16.70138 23.749914 1.462305 46.154179-2.648316 67.532069-12.384052C350.533027 636.960013 366.10877 624.746854 379.32784 608.751554z" p-id="4016" fill="#d81e06"></path><path d="M272.95823 375.572818c0.137123-10.007935 1.435699-18.871813 5.409197-27.16571 0.984421-2.055822 2.155083-4.056386 3.488451-5.904477 7.708566-10.683317 19.392676-13.06148 30.618345-6.204305 7.997138 4.885264 13.623275 11.991102 17.859763 20.177552 9.383718 18.139126 12.963243 37.226856 8.627495 57.43613-1.326205 6.180769-3.752464 11.938913-7.740288 16.936741-7.355525 9.215896-18.08796 11.409864-28.461215 5.78475-8.05649-4.368494-13.747095-11.097756-18.249643-18.87386C276.802792 404.449495 273.241686 389.991202 272.95823 375.572818z" p-id="4017" fill="#d81e06"></path><path d="M109.451296 436.917978c-0.038886-9.597589 1.38658-18.890232 5.828752-27.51568 3.100618-6.02011 7.383154-10.93198 14.056134-13.065574 7.452739-2.382257 14.19428-0.279363 20.367887 3.968381 8.377808 5.762237 13.981433 13.831007 18.046005 22.954805 7.706519 17.303085 10.326183 35.219129 5.609765 53.837162-1.420349 5.604648-3.789303 10.807137-7.543813 15.276938-7.182586 8.55177-17.35732 10.535961-27.214828 5.272074-8.841366-4.719488-14.738679-12.242835-19.305695-20.888749C112.720759 464.312908 109.562836 450.980251 109.451296 436.917978z" p-id="4018" fill="#d81e06"></path></svg>